<svg version="1.1" id="Layer_1" xmlns="http://www.w3.org/2000/svg" xmlns:xlink="http://www.w3.org/1999/xlink" x="0px" y="0px"
	 width="100%" viewBox="0 0 1200 1200" enable-background="new 0 0 1200 1200" xml:space="preserve">
<path fill="#EEEEEE" opacity="1.000000" stroke="none" 
	d="
M826.000000,1201.000000 
	C550.666687,1201.000000 275.833344,1201.000000 1.000000,1201.000000 
	C1.000000,801.000000 1.000000,401.000000 1.000000,1.000000 
	C401.000000,1.000000 801.000000,1.000000 1201.000000,1.000000 
	C1201.000000,401.000000 1201.000000,801.000000 1201.000000,1201.000000 
	C1076.166626,1201.000000 951.333313,1201.000000 826.000000,1201.000000 
M717.689819,579.884521 
	C735.430603,569.532959 753.171326,559.181396 771.232178,548.643066 
	C764.167542,538.351379 757.288635,528.330322 750.168701,517.958069 
	C749.275818,519.103638 748.807007,519.560608 748.507812,520.109985 
	C740.180237,535.403564 731.803223,550.670898 723.597595,566.029846 
	C721.165161,570.582764 719.223083,575.397705 716.725098,579.781921 
	C716.606384,580.006531 716.487671,580.231140 716.369019,580.455750 
	C716.577576,580.297913 716.786194,580.140076 717.689819,579.884521 
M654.086243,377.413849 
	C654.320679,377.275757 654.555176,377.137695 655.288574,376.546570 
	C656.000305,375.446777 656.711975,374.346954 657.609558,372.959961 
	C673.013245,395.385437 688.260742,417.561493 703.484619,439.753693 
	C718.691040,461.920349 733.873901,484.103149 749.371460,506.723175 
	C759.799500,487.559845 769.946228,469.081116 779.867493,450.482178 
	C781.200134,447.983948 782.012512,444.881561 782.023926,442.054779 
	C782.166748,406.579865 782.076782,371.104126 782.183838,335.628998 
	C782.193970,332.266754 781.306763,330.309143 778.214172,328.557953 
	C763.187988,320.049286 748.343140,311.220551 733.428162,302.515320 
	C723.987183,297.005066 714.535950,291.512604 704.744995,285.811676 
	C688.950989,314.784241 673.351318,343.400299 657.641296,372.218872 
	C656.113770,370.595337 654.958618,369.367584 654.208984,368.570862 
	C652.562866,369.987610 651.246948,371.120117 649.736145,371.579346 
	C631.516174,345.008423 613.296143,318.437500 594.586365,291.152252 
	C567.331482,349.281219 540.464661,406.582458 513.399109,464.307678 
	C511.789581,462.580597 510.629852,461.336182 509.306274,459.915955 
	C508.267914,461.838196 507.437958,463.374695 506.458374,465.188110 
	C477.718658,430.153961 449.207123,395.397949 419.881989,359.650116 
	C419.881989,362.609009 419.881989,364.223511 419.881989,365.838043 
	C419.881989,384.166504 419.881989,402.494965 419.881989,420.823425 
	C419.882019,459.813080 419.855286,498.802826 419.963684,537.792175 
	C419.968903,539.673828 420.590637,542.489990 421.893616,543.286194 
	C434.200439,550.805969 446.717651,557.981384 459.689972,565.557312 
	C475.360413,532.143311 490.863129,499.086975 506.579346,465.575317 
	C508.281158,467.478729 509.374237,468.701324 510.551544,470.018158 
	C511.496368,468.332855 512.381897,466.753326 513.495056,464.767700 
	C531.003784,486.061401 548.328979,507.131897 565.810303,528.392273 
	C566.494202,527.467651 566.827942,527.111877 567.053955,526.697388 
	C583.356384,496.799347 599.686707,466.916412 615.932251,436.987488 
	C627.334839,415.980591 638.620911,394.910431 650.640625,373.761261 
	C651.720459,374.855835 652.800232,375.950378 654.086243,377.413849 
M597.651428,285.857971 
	C610.757324,304.856354 623.865540,323.853119 636.968079,342.853821 
	C642.446899,350.798920 647.913696,358.752258 653.824158,367.338379 
	C669.400085,338.738251 684.520874,310.973785 699.810852,282.898682 
	C673.104736,267.282196 646.937378,251.980728 620.305054,236.407394 
	C617.535400,242.232193 614.954651,247.770279 612.279419,253.262283 
	C607.213867,263.661194 602.094116,274.033661 596.553406,283.894806 
	C595.623657,282.702759 594.693909,281.510712 593.633728,280.151428 
	C592.507812,282.096100 591.687744,283.512482 590.643250,285.316528 
	C581.691040,272.309296 572.974426,259.644348 564.357239,247.123886 
	C563.633606,247.223312 563.262085,247.174408 563.006104,247.323685 
	C516.209290,274.616272 469.418793,301.919525 422.645569,329.252441 
	C421.676910,329.818451 420.127289,330.784149 420.171997,331.478058 
	C420.707611,339.784943 417.559601,348.259399 424.207703,356.114655 
	C445.588013,381.377136 466.358643,407.155609 487.369751,432.730713 
	C494.613892,441.548462 501.873810,450.353210 509.373657,459.464081 
	C536.621826,401.342407 563.556763,343.888977 590.681152,286.031311 
	C592.339844,287.943451 593.451233,289.224731 594.837646,290.822968 
	C595.679871,288.782257 596.306763,287.263428 597.651428,285.857971 
M567.440247,537.737122 
	C568.241028,536.539856 569.041748,535.342651 570.125854,533.721802 
	C594.751465,563.740051 619.074341,593.389221 643.509155,623.174866 
	C663.817688,611.343079 683.914612,599.671387 703.942566,587.882385 
	C705.267395,587.102539 706.293396,585.554993 707.073425,584.150696 
	C713.042664,573.404541 718.926392,562.610901 724.817078,551.821289 
	C731.889282,538.867737 738.942261,525.903687 746.163513,512.650452 
	C747.596985,514.347107 748.689758,515.640503 749.914429,517.090027 
	C751.085144,515.438660 752.003418,514.143311 753.221313,512.425415 
	C760.282593,522.648193 767.246155,532.334778 773.732178,542.331177 
	C776.038391,545.885559 778.186523,545.441101 780.377686,543.154785 
	C781.521729,541.961121 782.040039,539.722168 782.047546,537.951965 
	C782.151428,513.294495 782.122742,488.636505 782.103149,463.978638 
	C782.102234,462.815094 781.884399,461.651733 781.672058,459.535950 
	C771.867371,477.424133 762.581177,494.366364 753.057251,511.742249 
	C751.567322,509.755707 750.582520,508.442688 749.483093,506.976837 
	C748.427429,508.580109 747.408325,510.127869 746.128906,512.070923 
	C715.518066,467.454773 685.156372,423.201721 654.362305,378.318451 
	C626.086365,430.212494 598.094238,481.585663 569.775879,533.557617 
	C568.307434,531.698425 567.318481,530.446350 566.213623,529.047424 
	C564.839478,530.815613 563.788086,532.168518 562.652893,533.629272 
	C545.252258,512.434753 528.094910,491.536591 510.638824,470.274536 
	C495.123627,503.428925 479.943481,535.867432 464.676208,568.492065 
	C484.955383,580.287415 504.848999,591.858521 525.078674,603.625061 
	C537.790649,580.344177 550.241516,557.541565 563.098450,533.995300 
	C564.535217,535.728088 565.472290,536.858154 566.492920,538.770264 
	C562.960510,545.530884 559.506104,552.333679 555.880066,559.043640 
	C547.362549,574.805359 538.763000,590.522827 530.244812,606.169861 
	C530.693848,606.656006 530.874878,606.970093 531.146667,607.129395 
	C552.931763,619.901062 574.680054,632.737366 596.588989,645.293274 
	C598.607727,646.450256 602.222778,646.867554 604.130066,645.837891 
	C615.619507,639.635559 626.826843,632.910828 638.359314,626.227234 
	C637.536316,625.051392 637.117065,624.359497 636.609131,623.740173 
	C620.788513,604.449463 604.922485,585.195862 589.147217,565.868164 
	C581.609131,556.632568 574.240601,547.258484 567.440247,537.737122 
M664.699219,750.319580 
	C663.865173,752.967407 662.342041,755.606567 662.308899,758.264404 
	C662.092712,775.590881 662.082947,792.922607 662.255981,810.250122 
	C662.329651,817.618591 666.015198,821.464172 673.251160,821.862976 
	C679.395935,822.201538 685.587036,822.183350 691.734009,821.866089 
	C698.136597,821.535767 701.662842,817.975342 702.136108,811.380859 
	C702.552612,805.578247 702.443848,799.733887 702.462402,793.907654 
	C702.499634,782.243958 702.611145,770.577454 702.409485,758.916931 
	C702.273560,751.055542 699.478577,747.327209 692.217041,746.637329 
	C685.310608,745.981079 678.268616,746.380371 671.315979,746.803589 
	C669.206787,746.931946 667.196350,748.682983 664.699219,750.319580 
M760.474609,788.500000 
	C760.471375,778.679749 760.616943,768.856506 760.418884,759.040161 
	C760.253235,750.828430 757.124023,747.051514 749.393127,746.395386 
	C743.286438,745.877014 737.066345,745.968933 730.951233,746.464111 
	C723.784546,747.044434 720.353760,750.670349 720.270386,757.812256 
	C720.064636,775.452942 720.059753,793.099548 720.284546,810.739868 
	C720.373718,817.735657 724.189514,821.473572 731.222473,821.860291 
	C737.360779,822.197754 743.544189,822.179749 749.685303,821.872070 
	C756.095459,821.550964 759.716736,818.005615 760.113159,811.447083 
	C760.554016,804.150757 760.380127,796.817322 760.474609,788.500000 
M645.034363,817.356506 
	C645.029663,803.223877 645.087646,789.090881 644.995239,774.958862 
	C644.944702,767.227173 641.593506,763.451538 633.894897,763.195557 
	C629.614563,763.053162 625.293396,764.135925 620.605591,764.714050 
	C620.605591,757.739502 620.605591,749.978455 620.605591,742.102844 
	C615.916321,742.102844 611.691589,742.102844 607.434448,742.102844 
	C607.434448,768.864929 607.434448,795.278931 607.434448,821.623047 
	C612.064697,821.623047 616.286926,821.623047 620.815125,821.623047 
	C620.815125,807.442444 620.882935,793.647949 620.772034,779.854858 
	C620.740417,775.930542 621.520447,773.749939 626.242371,773.658936 
	C630.893311,773.569275 631.581970,775.675781 631.211975,779.375977 
	C631.097473,780.521301 631.212158,781.689026 631.212280,782.846497 
	C631.213623,795.732605 631.213135,808.618774 631.213135,822.002991 
	C635.329102,822.002991 638.977905,822.254456 642.547729,821.834351 
	C643.495422,821.722839 644.200378,819.548157 645.034363,817.356506 
M528.074951,821.972046 
	C532.000793,821.972046 535.926636,821.972046 539.728210,821.972046 
	C539.728210,801.945312 539.728210,782.580383 539.728210,763.116760 
	C535.360352,763.116760 531.388062,763.116760 527.284851,763.116760 
	C527.046448,764.254395 526.827576,765.298889 526.565979,766.546997 
	C520.567017,761.432617 513.944824,761.971802 507.708740,764.637573 
	C501.800232,767.163147 502.184265,773.117493 502.191162,778.505005 
	C502.203278,787.992615 502.191162,797.480164 502.195374,806.967773 
	C502.200684,818.862366 505.552155,822.268127 517.302795,821.939026 
	C519.542175,821.876221 521.737183,820.752014 523.993469,820.526917 
	C525.015015,820.425049 526.136597,821.324646 528.074951,821.972046 
M393.194611,803.452637 
	C393.194305,819.367676 396.322662,822.938354 409.758331,821.924011 
	C412.140594,821.744141 414.452484,820.632446 416.268188,820.104675 
	C421.109009,823.553284 426.106201,821.426086 430.713501,821.923340 
	C430.713501,801.901306 430.713501,782.544128 430.713501,763.121094 
	C426.329834,763.121094 422.357025,763.121094 418.277710,763.121094 
	C418.037354,764.266418 417.818481,765.309326 417.570282,766.492004 
	C411.535278,761.496765 404.943634,761.973206 398.690643,764.639893 
	C393.017609,767.059204 393.211212,772.795959 393.199463,778.013550 
	C393.181122,786.164368 393.194672,794.315247 393.194611,803.452637 
M566.996216,763.090332 
	C557.825195,764.929993 556.008850,767.098694 555.849365,776.489807 
	C555.807129,778.977051 555.858704,781.465698 555.859253,783.953735 
	C555.861328,794.102173 559.006470,797.282898 569.233948,797.473633 
	C578.820496,797.652405 578.820312,797.652405 578.523926,807.141602 
	C578.503174,807.806641 578.751709,808.687866 578.418579,809.095520 
	C577.497437,810.222412 576.487244,811.732788 575.241150,812.060303 
	C569.222046,813.642578 569.031311,809.216797 568.948914,805.069580 
	C564.519165,805.069580 560.455688,805.069580 556.435120,805.069580 
	C555.149719,815.721619 557.498047,820.541138 565.448242,821.592224 
	C571.151123,822.346069 577.088074,822.119141 582.835754,821.518311 
	C588.360596,820.940857 591.266602,817.452637 591.727295,811.778442 
	C592.075562,807.489380 592.104492,803.137207 591.823364,798.842712 
	C591.367554,791.879395 587.673401,788.445679 580.590454,788.025269 
	C577.939453,787.867859 575.179993,788.381470 572.649536,787.803162 
	C571.245544,787.482300 569.483093,785.701782 569.170776,784.293457 
	C568.608337,781.756592 568.668823,778.938782 569.160156,776.370544 
	C569.410339,775.062683 570.985229,773.330444 572.265137,773.012207 
	C578.468994,771.469910 578.227112,776.102966 578.277771,780.150024 
	C582.624023,780.150024 586.699036,780.150024 590.733154,780.150024 
	C592.182190,767.153137 588.596069,763.095398 575.878540,762.998413 
	C573.216797,762.978088 570.554626,763.003967 566.996216,763.090332 
M787.440552,790.854797 
	C784.221985,801.067200 781.003418,811.279541 777.678772,821.828369 
	C782.772766,821.828369 787.227112,821.828369 791.792603,821.828369 
	C798.733948,799.736389 805.718872,777.781250 812.448608,755.748108 
	C813.319336,752.897400 812.870422,749.643616 813.033752,746.557983 
	C799.933228,746.557983 787.556824,746.557983 775.248108,746.557983 
	C775.248108,750.326599 775.248108,753.719543 775.248108,757.694092 
	C782.830078,757.694092 790.054077,757.694092 797.948303,757.694092 
	C794.397644,768.997925 791.079407,779.561707 787.440552,790.854797 
M607.426331,250.041107 
	C610.027222,244.557678 612.628113,239.074234 615.270813,233.502747 
	C611.563049,231.351807 608.552002,229.194382 605.218140,227.819855 
	C603.103149,226.947861 599.979980,226.243179 598.215637,227.176849 
	C588.454773,232.342194 578.972351,238.033783 569.014282,243.763855 
	C577.315063,255.865356 585.265564,267.456116 593.647827,279.676392 
	C598.341919,269.605652 602.738708,260.172913 607.426331,250.041107 
M461.814575,754.513367 
	C461.814575,750.413635 461.814575,746.313904 461.814575,742.104736 
	C456.909698,742.104736 452.686890,742.104736 448.413696,742.104736 
	C448.413696,768.852478 448.413696,795.251526 448.413696,821.649353 
	C453.023560,821.649353 457.244141,821.649353 461.814484,821.649353 
	C461.814484,799.362427 461.814484,777.436157 461.814575,754.513367 
M474.419006,765.676697 
	C471.044464,773.077271 467.550110,780.427185 464.382874,787.915405 
	C463.628510,789.698975 463.265076,792.213562 463.922424,793.932861 
	C467.179382,802.451660 470.781921,810.841370 474.423157,819.206665 
	C474.915497,820.337708 476.256561,821.781311 477.303894,821.867004 
	C481.182465,822.184265 485.102600,821.993347 489.744843,821.993347 
	C486.679169,814.838013 484.547699,808.124023 481.077545,802.193298 
	C476.496796,794.364502 477.211761,787.546204 481.771881,780.090759 
	C484.912262,774.956482 486.916962,769.127502 489.708923,762.994568 
	C485.976868,762.994568 483.138519,762.751648 480.367401,763.078552 
	C478.470032,763.302429 476.666290,764.319885 474.419006,765.676697 
z"/>
<path fill="#01ADB5" opacity="1.000000" stroke="none" 
	d="
M566.409363,537.988281 
	C565.472290,536.858154 564.535217,535.728088 563.098450,533.995300 
	C550.241516,557.541565 537.790649,580.344177 525.078674,603.625061 
	C504.848999,591.858521 484.955383,580.287415 464.676208,568.492065 
	C479.943481,535.867432 495.123627,503.428925 510.638824,470.274536 
	C528.094910,491.536591 545.252258,512.434753 562.652893,533.629272 
	C563.788086,532.168518 564.839478,530.815613 566.213623,529.047424 
	C567.318481,530.446350 568.307434,531.698425 569.775879,533.557617 
	C598.094238,481.585663 626.086365,430.212494 654.362305,378.318451 
	C685.156372,423.201721 715.518066,467.454773 746.128906,512.070923 
	C747.408325,510.127869 748.427429,508.580109 749.483093,506.976837 
	C750.582520,508.442688 751.567322,509.755707 753.057251,511.742249 
	C762.581177,494.366364 771.867371,477.424133 781.672058,459.535950 
	C781.884399,461.651733 782.102234,462.815094 782.103149,463.978638 
	C782.122742,488.636505 782.151428,513.294495 782.047546,537.951965 
	C782.040039,539.722168 781.521729,541.961121 780.377686,543.154785 
	C778.186523,545.441101 776.038391,545.885559 773.732178,542.331177 
	C767.246155,532.334778 760.282593,522.648193 753.221313,512.425415 
	C752.003418,514.143311 751.085144,515.438660 749.914429,517.090027 
	C748.689758,515.640503 747.596985,514.347107 746.163513,512.650452 
	C738.942261,525.903687 731.889282,538.867737 724.817078,551.821289 
	C718.926392,562.610901 713.042664,573.404541 707.073425,584.150696 
	C706.293396,585.554993 705.267395,587.102539 703.942566,587.882385 
	C683.914612,599.671387 663.817688,611.343079 643.509155,623.174866 
	C619.074341,593.389221 594.751465,563.740051 570.125854,533.721802 
	C569.041748,535.342651 568.241028,536.539856 567.021667,537.855591 
	C566.603088,537.974121 566.409363,537.988281 566.409363,537.988281 
z"/>
<path fill="#01ADB5" opacity="1.000000" stroke="none" 
	d="
M649.958984,373.868530 
	C638.620911,394.910431 627.334839,415.980591 615.932251,436.987488 
	C599.686707,466.916412 583.356384,496.799347 567.053955,526.697388 
	C566.827942,527.111877 566.494202,527.467651 565.810303,528.392273 
	C548.328979,507.131897 531.003784,486.061401 513.495056,464.767700 
	C512.381897,466.753326 511.496368,468.332855 510.551544,470.018158 
	C509.374237,468.701324 508.281158,467.478729 506.579346,465.575317 
	C490.863129,499.086975 475.360413,532.143311 459.689972,565.557312 
	C446.717651,557.981384 434.200439,550.805969 421.893616,543.286194 
	C420.590637,542.489990 419.968903,539.673828 419.963684,537.792175 
	C419.855286,498.802826 419.882019,459.813080 419.881989,420.823425 
	C419.881989,402.494965 419.881989,384.166504 419.881989,365.838043 
	C419.881989,364.223511 419.881989,362.609009 419.881989,359.650116 
	C449.207123,395.397949 477.718658,430.153961 506.458374,465.188110 
	C507.437958,463.374695 508.267914,461.838196 509.306274,459.915955 
	C510.629852,461.336182 511.789581,462.580597 513.399109,464.307678 
	C540.464661,406.582458 567.331482,349.281219 594.586365,291.152252 
	C613.296143,318.437500 631.516174,345.008423 649.851562,372.184937 
	C649.964355,373.149841 649.961670,373.509186 649.958984,373.868530 
z"/>
<path fill="#01ADB5" opacity="1.000000" stroke="none" 
	d="
M596.933655,285.744598 
	C596.306763,287.263428 595.679871,288.782257 594.837646,290.822968 
	C593.451233,289.224731 592.339844,287.943451 590.681152,286.031311 
	C563.556763,343.888977 536.621826,401.342407 509.373657,459.464081 
	C501.873810,450.353210 494.613892,441.548462 487.369751,432.730713 
	C466.358643,407.155609 445.588013,381.377136 424.207703,356.114655 
	C417.559601,348.259399 420.707611,339.784943 420.171997,331.478058 
	C420.127289,330.784149 421.676910,329.818451 422.645569,329.252441 
	C469.418793,301.919525 516.209290,274.616272 563.006104,247.323685 
	C563.262085,247.174408 563.633606,247.223312 564.357239,247.123886 
	C572.974426,259.644348 581.691040,272.309296 590.643250,285.316528 
	C591.687744,283.512482 592.507812,282.096100 593.633728,280.151428 
	C594.693909,281.510712 595.623657,282.702759 596.771362,284.377502 
	C596.982178,285.155731 596.963623,285.450531 596.933655,285.744598 
z"/>
<path fill="#00ADB5" opacity="1.000000" stroke="none" 
	d="
M650.299805,373.814880 
	C649.961670,373.509186 649.964355,373.149841 649.949036,372.521576 
	C651.246948,371.120117 652.562866,369.987610 654.208984,368.570862 
	C654.958618,369.367584 656.113770,370.595337 657.641296,372.218872 
	C673.351318,343.400299 688.950989,314.784241 704.744995,285.811676 
	C714.535950,291.512604 723.987183,297.005066 733.428162,302.515320 
	C748.343140,311.220551 763.187988,320.049286 778.214172,328.557953 
	C781.306763,330.309143 782.193970,332.266754 782.183838,335.628998 
	C782.076782,371.104126 782.166748,406.579865 782.023926,442.054779 
	C782.012512,444.881561 781.200134,447.983948 779.867493,450.482178 
	C769.946228,469.081116 759.799500,487.559845 749.371460,506.723175 
	C733.873901,484.103149 718.691040,461.920349 703.484619,439.753693 
	C688.260742,417.561493 673.013245,395.385437 657.609558,372.959961 
	C656.711975,374.346954 656.000305,375.446777 654.811646,376.782532 
	C654.334717,377.018524 653.880066,377.044952 653.880066,377.044952 
	C652.800232,375.950378 651.720459,374.855835 650.299805,373.814880 
z"/>
<path fill="#01ADB5" opacity="1.000000" stroke="none" 
	d="
M597.292542,285.801270 
	C596.963623,285.450531 596.982178,285.155731 596.993103,284.638672 
	C602.094116,274.033661 607.213867,263.661194 612.279419,253.262283 
	C614.954651,247.770279 617.535400,242.232193 620.305054,236.407394 
	C646.937378,251.980728 673.104736,267.282196 699.810852,282.898682 
	C684.520874,310.973785 669.400085,338.738251 653.824158,367.338379 
	C647.913696,358.752258 642.446899,350.798920 636.968079,342.853821 
	C623.865540,323.853119 610.757324,304.856354 597.292542,285.801270 
z"/>
<path fill="#01ADB5" opacity="1.000000" stroke="none" 
	d="
M566.451172,538.379272 
	C566.409363,537.988281 566.603088,537.974121 566.699219,537.960632 
	C574.240601,547.258484 581.609131,556.632568 589.147217,565.868164 
	C604.922485,585.195862 620.788513,604.449463 636.609131,623.740173 
	C637.117065,624.359497 637.536316,625.051392 638.359314,626.227234 
	C626.826843,632.910828 615.619507,639.635559 604.130066,645.837891 
	C602.222778,646.867554 598.607727,646.450256 596.588989,645.293274 
	C574.680054,632.737366 552.931763,619.901062 531.146667,607.129395 
	C530.874878,606.970093 530.693848,606.656006 530.244812,606.169861 
	C538.763000,590.522827 547.362549,574.805359 555.880066,559.043640 
	C559.506104,552.333679 562.960510,545.530884 566.451172,538.379272 
z"/>
<path fill="#03AEB6" opacity="1.000000" stroke="none" 
	d="
M664.919983,750.005127 
	C667.196350,748.682983 669.206787,746.931946 671.315979,746.803589 
	C678.268616,746.380371 685.310608,745.981079 692.217041,746.637329 
	C699.478577,747.327209 702.273560,751.055542 702.409485,758.916931 
	C702.611145,770.577454 702.499634,782.243958 702.462402,793.907654 
	C702.443848,799.733887 702.552612,805.578247 702.136108,811.380859 
	C701.662842,817.975342 698.136597,821.535767 691.734009,821.866089 
	C685.587036,822.183350 679.395935,822.201538 673.251160,821.862976 
	C666.015198,821.464172 662.329651,817.618591 662.255981,810.250122 
	C662.082947,792.922607 662.092712,775.590881 662.308899,758.264404 
	C662.342041,755.606567 663.865173,752.967407 664.919983,750.005127 
M676.113403,796.484985 
	C676.113403,799.484558 676.215881,802.488586 676.088318,805.482666 
	C675.916138,809.524841 676.727661,812.276978 681.759521,812.072266 
	C687.648865,811.832581 688.566895,811.369934 688.594360,805.563354 
	C688.663696,790.900146 688.449951,776.234985 688.595032,761.573059 
	C688.648071,756.216431 685.197876,757.046021 681.869202,756.875000 
	C678.100403,756.681274 675.941589,757.483032 676.036621,761.996826 
	C676.271606,773.156982 676.113525,784.325378 676.113403,796.484985 
z"/>
<path fill="#03AEB6" opacity="1.000000" stroke="none" 
	d="
M760.474243,789.000000 
	C760.380127,796.817322 760.554016,804.150757 760.113159,811.447083 
	C759.716736,818.005615 756.095459,821.550964 749.685303,821.872070 
	C743.544189,822.179749 737.360779,822.197754 731.222473,821.860291 
	C724.189514,821.473572 720.373718,817.735657 720.284546,810.739868 
	C720.059753,793.099548 720.064636,775.452942 720.270386,757.812256 
	C720.353760,750.670349 723.784546,747.044434 730.951233,746.464111 
	C737.066345,745.968933 743.286438,745.877014 749.393127,746.395386 
	C757.124023,747.051514 760.253235,750.828430 760.418884,759.040161 
	C760.616943,768.856506 760.471375,778.679749 760.474243,789.000000 
M741.405212,811.426575 
	C745.695374,811.928955 746.766052,809.640747 746.736755,805.803162 
	C746.626404,791.335693 746.532837,776.864075 746.779907,762.399963 
	C746.866089,757.354431 744.346191,756.787781 740.298889,756.778625 
	C736.165039,756.769226 733.883911,757.498047 733.991455,762.519043 
	C734.297729,776.814514 734.277710,791.124207 734.002686,805.421021 
	C733.905579,810.467773 735.881042,812.035156 741.405212,811.426575 
z"/>
<path fill="#06AFB6" opacity="1.000000" stroke="none" 
	d="
M645.025574,817.838623 
	C644.200378,819.548157 643.495422,821.722839 642.547729,821.834351 
	C638.977905,822.254456 635.329102,822.002991 631.213135,822.002991 
	C631.213135,808.618774 631.213623,795.732605 631.212280,782.846497 
	C631.212158,781.689026 631.097473,780.521301 631.211975,779.375977 
	C631.581970,775.675781 630.893311,773.569275 626.242371,773.658936 
	C621.520447,773.749939 620.740417,775.930542 620.772034,779.854858 
	C620.882935,793.647949 620.815125,807.442444 620.815125,821.623047 
	C616.286926,821.623047 612.064697,821.623047 607.434448,821.623047 
	C607.434448,795.278931 607.434448,768.864929 607.434448,742.102844 
	C611.691589,742.102844 615.916321,742.102844 620.605591,742.102844 
	C620.605591,749.978455 620.605591,757.739502 620.605591,764.714050 
	C625.293396,764.135925 629.614563,763.053162 633.894897,763.195557 
	C641.593506,763.451538 644.944702,767.227173 644.995239,774.958862 
	C645.087646,789.090881 645.029663,803.223877 645.025574,817.838623 
z"/>
<path fill="#03AEB6" opacity="1.000000" stroke="none" 
	d="
M527.643921,821.870972 
	C526.136597,821.324646 525.015015,820.425049 523.993469,820.526917 
	C521.737183,820.752014 519.542175,821.876221 517.302795,821.939026 
	C505.552155,822.268127 502.200684,818.862366 502.195374,806.967773 
	C502.191162,797.480164 502.203278,787.992615 502.191162,778.505005 
	C502.184265,773.117493 501.800232,767.163147 507.708740,764.637573 
	C513.944824,761.971802 520.567017,761.432617 526.565979,766.546997 
	C526.827576,765.298889 527.046448,764.254395 527.284851,763.116760 
	C531.388062,763.116760 535.360352,763.116760 539.728210,763.116760 
	C539.728210,782.580383 539.728210,801.945312 539.728210,821.972046 
	C535.926636,821.972046 532.000793,821.972046 527.643921,821.870972 
M526.693481,795.481140 
	C526.682922,789.817932 526.713379,784.154175 526.648499,778.491577 
	C526.598145,774.096802 523.731995,773.743042 520.169373,773.694641 
	C516.349548,773.642761 515.887817,775.526550 515.935364,778.667542 
	C516.076599,787.993347 516.093262,797.324524 515.929138,806.649597 
	C515.870178,809.997986 516.789917,811.323975 520.399902,811.427002 
	C524.903809,811.555542 526.877075,809.937805 526.710083,805.464355 
	C526.598328,802.470276 526.691650,799.468628 526.693481,795.481140 
z"/>
<path fill="#03AEB6" opacity="1.000000" stroke="none" 
	d="
M393.194672,802.959351 
	C393.194672,794.315247 393.181122,786.164368 393.199463,778.013550 
	C393.211212,772.795959 393.017609,767.059204 398.690643,764.639893 
	C404.943634,761.973206 411.535278,761.496765 417.570282,766.492004 
	C417.818481,765.309326 418.037354,764.266418 418.277710,763.121094 
	C422.357025,763.121094 426.329834,763.121094 430.713501,763.121094 
	C430.713501,782.544128 430.713501,801.901306 430.713501,821.923340 
	C426.106201,821.426086 421.109009,823.553284 416.268188,820.104675 
	C414.452484,820.632446 412.140594,821.744141 409.758331,821.924011 
	C396.322662,822.938354 393.194305,819.367676 393.194672,802.959351 
M413.209686,773.785522 
	C408.169800,772.948486 406.610474,775.001099 406.866638,780.081970 
	C407.300476,788.686279 406.890167,797.330139 407.050598,805.953308 
	C407.092682,808.216309 405.623901,811.766602 410.210083,811.701721 
	C413.969208,811.648560 417.722778,811.661438 417.689117,806.266724 
	C417.632172,797.143372 417.860962,788.012512 417.517090,778.901855 
	C417.451508,777.164612 415.292969,775.506287 413.209686,773.785522 
z"/>
<path fill="#03AEB6" opacity="1.000000" stroke="none" 
	d="
M567.444458,763.049438 
	C570.554626,763.003967 573.216797,762.978088 575.878540,762.998413 
	C588.596069,763.095398 592.182190,767.153137 590.733154,780.150024 
	C586.699036,780.150024 582.624023,780.150024 578.277771,780.150024 
	C578.227112,776.102966 578.468994,771.469910 572.265137,773.012207 
	C570.985229,773.330444 569.410339,775.062683 569.160156,776.370544 
	C568.668823,778.938782 568.608337,781.756592 569.170776,784.293457 
	C569.483093,785.701782 571.245544,787.482300 572.649536,787.803162 
	C575.179993,788.381470 577.939453,787.867859 580.590454,788.025269 
	C587.673401,788.445679 591.367554,791.879395 591.823364,798.842712 
	C592.104492,803.137207 592.075562,807.489380 591.727295,811.778442 
	C591.266602,817.452637 588.360596,820.940857 582.835754,821.518311 
	C577.088074,822.119141 571.151123,822.346069 565.448242,821.592224 
	C557.498047,820.541138 555.149719,815.721619 556.435120,805.069580 
	C560.455688,805.069580 564.519165,805.069580 568.948914,805.069580 
	C569.031311,809.216797 569.222046,813.642578 575.241150,812.060303 
	C576.487244,811.732788 577.497437,810.222412 578.418579,809.095520 
	C578.751709,808.687866 578.503174,807.806641 578.523926,807.141602 
	C578.820312,797.652405 578.820496,797.652405 569.233948,797.473633 
	C559.006470,797.282898 555.861328,794.102173 555.859253,783.953735 
	C555.858704,781.465698 555.807129,778.977051 555.849365,776.489807 
	C556.008850,767.098694 557.825195,764.929993 567.444458,763.049438 
z"/>
<path fill="#03AEB6" opacity="1.000000" stroke="none" 
	d="
M787.600830,790.490173 
	C791.079407,779.561707 794.397644,768.997925 797.948303,757.694092 
	C790.054077,757.694092 782.830078,757.694092 775.248108,757.694092 
	C775.248108,753.719543 775.248108,750.326599 775.248108,746.557983 
	C787.556824,746.557983 799.933228,746.557983 813.033752,746.557983 
	C812.870422,749.643616 813.319336,752.897400 812.448608,755.748108 
	C805.718872,777.781250 798.733948,799.736389 791.792603,821.828369 
	C787.227112,821.828369 782.772766,821.828369 777.678772,821.828369 
	C781.003418,811.279541 784.221985,801.067200 787.600830,790.490173 
z"/>
<path fill="#03AEB6" opacity="1.000000" stroke="none" 
	d="
M607.280884,250.390640 
	C602.738708,260.172913 598.341919,269.605652 593.647827,279.676392 
	C585.265564,267.456116 577.315063,255.865356 569.014282,243.763855 
	C578.972351,238.033783 588.454773,232.342194 598.215637,227.176849 
	C599.979980,226.243179 603.103149,226.947861 605.218140,227.819855 
	C608.552002,229.194382 611.563049,231.351807 615.270813,233.502747 
	C612.628113,239.074234 610.027222,244.557678 607.280884,250.390640 
z"/>
<path fill="#03AEB6" opacity="1.000000" stroke="none" 
	d="
M717.056396,580.092651 
	C719.223083,575.397705 721.165161,570.582764 723.597595,566.029846 
	C731.803223,550.670898 740.180237,535.403564 748.507812,520.109985 
	C748.807007,519.560608 749.275818,519.103638 750.168701,517.958069 
	C757.288635,528.330322 764.167542,538.351379 771.232178,548.643066 
	C753.171326,559.181396 735.430603,569.532959 717.358459,579.960571 
	C717.027100,580.036621 717.056396,580.092651 717.056396,580.092651 
z"/>
<path fill="#06AFB6" opacity="1.000000" stroke="none" 
	d="
M461.814514,755.011658 
	C461.814484,777.436157 461.814484,799.362427 461.814484,821.649353 
	C457.244141,821.649353 453.023560,821.649353 448.413696,821.649353 
	C448.413696,795.251526 448.413696,768.852478 448.413696,742.104736 
	C452.686890,742.104736 456.909698,742.104736 461.814575,742.104736 
	C461.814575,746.313904 461.814575,750.413635 461.814514,755.011658 
z"/>
<path fill="#03AEB6" opacity="1.000000" stroke="none" 
	d="
M474.619873,765.329590 
	C476.666290,764.319885 478.470032,763.302429 480.367401,763.078552 
	C483.138519,762.751648 485.976868,762.994568 489.708923,762.994568 
	C486.916962,769.127502 484.912262,774.956482 481.771881,780.090759 
	C477.211761,787.546204 476.496796,794.364502 481.077545,802.193298 
	C484.547699,808.124023 486.679169,814.838013 489.744843,821.993347 
	C485.102600,821.993347 481.182465,822.184265 477.303894,821.867004 
	C476.256561,821.781311 474.915497,820.337708 474.423157,819.206665 
	C470.781921,810.841370 467.179382,802.451660 463.922424,793.932861 
	C463.265076,792.213562 463.628510,789.698975 464.382874,787.915405 
	C467.550110,780.427185 471.044464,773.077271 474.619873,765.329590 
z"/>
<path fill="#03AEB6" opacity="1.000000" stroke="none" 
	d="
M717.010925,580.009399 
	C716.786194,580.140076 716.577576,580.297913 716.369019,580.455750 
	C716.487671,580.231140 716.606384,580.006531 716.890747,579.937256 
	C717.056396,580.092651 717.027100,580.036621 717.010925,580.009399 
z"/>
<path fill="#01ADB5" opacity="1.000000" stroke="none" 
	d="
M653.983154,377.229401 
	C653.880066,377.044952 654.334717,377.018524 654.562134,377.009094 
	C654.555176,377.137695 654.320679,377.275757 653.983154,377.229401 
z"/>
<path fill="#EAEDED" opacity="1.000000" stroke="none" 
	d="
M676.113403,795.987732 
	C676.113525,784.325378 676.271606,773.156982 676.036621,761.996826 
	C675.941589,757.483032 678.100403,756.681274 681.869202,756.875000 
	C685.197876,757.046021 688.648071,756.216431 688.595032,761.573059 
	C688.449951,776.234985 688.663696,790.900146 688.594360,805.563354 
	C688.566895,811.369934 687.648865,811.832581 681.759521,812.072266 
	C676.727661,812.276978 675.916138,809.524841 676.088318,805.482666 
	C676.215881,802.488586 676.113403,799.484558 676.113403,795.987732 
z"/>
<path fill="#E4EBEC" opacity="1.000000" stroke="none" 
	d="
M740.947021,811.363647 
	C735.881042,812.035156 733.905579,810.467773 734.002686,805.421021 
	C734.277710,791.124207 734.297729,776.814514 733.991455,762.519043 
	C733.883911,757.498047 736.165039,756.769226 740.298889,756.778625 
	C744.346191,756.787781 746.866089,757.354431 746.779907,762.399963 
	C746.532837,776.864075 746.626404,791.335693 746.736755,805.803162 
	C746.766052,809.640747 745.695374,811.928955 740.947021,811.363647 
z"/>
<path fill="#E4EBEC" opacity="1.000000" stroke="none" 
	d="
M526.693359,795.975708 
	C526.691650,799.468628 526.598328,802.470276 526.710083,805.464355 
	C526.877075,809.937805 524.903809,811.555542 520.399902,811.427002 
	C516.789917,811.323975 515.870178,809.997986 515.929138,806.649597 
	C516.093262,797.324524 516.076599,787.993347 515.935364,778.667542 
	C515.887817,775.526550 516.349548,773.642761 520.169373,773.694641 
	C523.731995,773.743042 526.598145,774.096802 526.648499,778.491577 
	C526.713379,784.154175 526.682922,789.817932 526.693359,795.975708 
z"/>
<path fill="#E4EBEC" opacity="1.000000" stroke="none" 
	d="
M413.654877,773.798584 
	C415.292969,775.506287 417.451508,777.164612 417.517090,778.901855 
	C417.860962,788.012512 417.632172,797.143372 417.689117,806.266724 
	C417.722778,811.661438 413.969208,811.648560 410.210083,811.701721 
	C405.623901,811.766602 407.092682,808.216309 407.050598,805.953308 
	C406.890167,797.330139 407.300476,788.686279 406.866638,780.081970 
	C406.610474,775.001099 408.169800,772.948486 413.654877,773.798584 
z"/>
</svg>